<mxfile host="app.diagrams.net" agent="Mozilla/5.0 (Windows NT 10.0; Win64; x64) AppleWebKit/537.36 (KHTML, like Gecko) Chrome/131.0.0.0 Safari/537.36" version="24.8.8">
  <diagram id="C5RBs43oDa-KdzZeNtuy" name="Page-1">
    <mxGraphModel dx="1393" dy="728" grid="1" gridSize="10" guides="1" tooltips="1" connect="1" arrows="1" fold="1" page="1" pageScale="1" pageWidth="1600" pageHeight="900" math="0" shadow="0">
      <root>
        <mxCell id="WIyWlLk6GJQsqaUBKTNV-0" />
        <mxCell id="WIyWlLk6GJQsqaUBKTNV-1" parent="WIyWlLk6GJQsqaUBKTNV-0" />
        <mxCell id="ccXL9rLVVRJ975ft9sJH-2" style="edgeStyle=orthogonalEdgeStyle;rounded=0;orthogonalLoop=1;jettySize=auto;html=1;exitX=0.5;exitY=1;exitDx=0;exitDy=0;exitPerimeter=0;" edge="1" parent="WIyWlLk6GJQsqaUBKTNV-1" source="ccXL9rLVVRJ975ft9sJH-16" target="ccXL9rLVVRJ975ft9sJH-0">
          <mxGeometry relative="1" as="geometry">
            <mxPoint x="150" y="130" as="sourcePoint" />
          </mxGeometry>
        </mxCell>
        <mxCell id="ccXL9rLVVRJ975ft9sJH-7" style="edgeStyle=orthogonalEdgeStyle;rounded=0;orthogonalLoop=1;jettySize=auto;html=1;exitX=0.5;exitY=0;exitDx=0;exitDy=0;entryX=0.5;entryY=1;entryDx=0;entryDy=0;" edge="1" parent="WIyWlLk6GJQsqaUBKTNV-1" source="ccXL9rLVVRJ975ft9sJH-1" target="ccXL9rLVVRJ975ft9sJH-6">
          <mxGeometry relative="1" as="geometry" />
        </mxCell>
        <mxCell id="ccXL9rLVVRJ975ft9sJH-6" value="Fin" style="ellipse;whiteSpace=wrap;html=1;aspect=fixed;" vertex="1" parent="WIyWlLk6GJQsqaUBKTNV-1">
          <mxGeometry x="270" y="10" width="80" height="80" as="geometry" />
        </mxCell>
        <mxCell id="ccXL9rLVVRJ975ft9sJH-14" value="Admin" style="swimlane;horizontal=0;whiteSpace=wrap;html=1;" vertex="1" parent="WIyWlLk6GJQsqaUBKTNV-1">
          <mxGeometry x="50" y="110" width="1970" height="650" as="geometry" />
        </mxCell>
        <mxCell id="ccXL9rLVVRJ975ft9sJH-0" value="Ingresa al Login" style="rounded=0;whiteSpace=wrap;html=1;" vertex="1" parent="ccXL9rLVVRJ975ft9sJH-14">
          <mxGeometry x="40" y="70" width="120" height="60" as="geometry" />
        </mxCell>
        <mxCell id="ccXL9rLVVRJ975ft9sJH-9" style="edgeStyle=orthogonalEdgeStyle;rounded=0;orthogonalLoop=1;jettySize=auto;html=1;exitX=1;exitY=0.5;exitDx=0;exitDy=0;entryX=0;entryY=0.5;entryDx=0;entryDy=0;" edge="1" parent="ccXL9rLVVRJ975ft9sJH-14" source="ccXL9rLVVRJ975ft9sJH-1" target="ccXL9rLVVRJ975ft9sJH-8">
          <mxGeometry relative="1" as="geometry" />
        </mxCell>
        <mxCell id="ccXL9rLVVRJ975ft9sJH-1" value="" style="rhombus;whiteSpace=wrap;html=1;" vertex="1" parent="ccXL9rLVVRJ975ft9sJH-14">
          <mxGeometry x="220" y="60" width="80" height="80" as="geometry" />
        </mxCell>
        <mxCell id="ccXL9rLVVRJ975ft9sJH-3" value="No" style="text;html=1;align=center;verticalAlign=middle;resizable=0;points=[];autosize=1;strokeColor=none;fillColor=none;" vertex="1" parent="ccXL9rLVVRJ975ft9sJH-14">
          <mxGeometry x="230" y="20" width="40" height="30" as="geometry" />
        </mxCell>
        <mxCell id="ccXL9rLVVRJ975ft9sJH-5" style="edgeStyle=orthogonalEdgeStyle;rounded=0;orthogonalLoop=1;jettySize=auto;html=1;entryX=0;entryY=0.5;entryDx=0;entryDy=0;" edge="1" parent="ccXL9rLVVRJ975ft9sJH-14" source="ccXL9rLVVRJ975ft9sJH-0" target="ccXL9rLVVRJ975ft9sJH-1">
          <mxGeometry relative="1" as="geometry" />
        </mxCell>
        <mxCell id="ccXL9rLVVRJ975ft9sJH-19" style="rounded=0;orthogonalLoop=1;jettySize=auto;html=1;exitX=1;exitY=0.5;exitDx=0;exitDy=0;entryX=0;entryY=0.5;entryDx=0;entryDy=0;" edge="1" parent="ccXL9rLVVRJ975ft9sJH-14" source="ccXL9rLVVRJ975ft9sJH-8" target="ccXL9rLVVRJ975ft9sJH-18">
          <mxGeometry relative="1" as="geometry" />
        </mxCell>
        <mxCell id="ccXL9rLVVRJ975ft9sJH-23" style="rounded=0;orthogonalLoop=1;jettySize=auto;html=1;exitX=0.5;exitY=1;exitDx=0;exitDy=0;entryX=0.5;entryY=0;entryDx=0;entryDy=0;" edge="1" parent="ccXL9rLVVRJ975ft9sJH-14" source="ccXL9rLVVRJ975ft9sJH-8" target="ccXL9rLVVRJ975ft9sJH-21">
          <mxGeometry relative="1" as="geometry" />
        </mxCell>
        <mxCell id="ccXL9rLVVRJ975ft9sJH-24" style="rounded=0;orthogonalLoop=1;jettySize=auto;html=1;entryX=1;entryY=0;entryDx=0;entryDy=0;exitX=0;exitY=1;exitDx=0;exitDy=0;" edge="1" parent="ccXL9rLVVRJ975ft9sJH-14" source="ccXL9rLVVRJ975ft9sJH-8" target="ccXL9rLVVRJ975ft9sJH-22">
          <mxGeometry relative="1" as="geometry">
            <mxPoint x="420" y="205" as="sourcePoint" />
          </mxGeometry>
        </mxCell>
        <mxCell id="ccXL9rLVVRJ975ft9sJH-25" style="edgeStyle=orthogonalEdgeStyle;rounded=0;orthogonalLoop=1;jettySize=auto;html=1;exitX=0.5;exitY=0;exitDx=0;exitDy=0;entryX=0;entryY=0.5;entryDx=0;entryDy=0;" edge="1" parent="ccXL9rLVVRJ975ft9sJH-14" source="ccXL9rLVVRJ975ft9sJH-8" target="ccXL9rLVVRJ975ft9sJH-20">
          <mxGeometry relative="1" as="geometry" />
        </mxCell>
        <mxCell id="ccXL9rLVVRJ975ft9sJH-8" value="Ingresa al panel de Control" style="rounded=0;whiteSpace=wrap;html=1;" vertex="1" parent="ccXL9rLVVRJ975ft9sJH-14">
          <mxGeometry x="370" y="70" width="120" height="60" as="geometry" />
        </mxCell>
        <mxCell id="ccXL9rLVVRJ975ft9sJH-4" value="Si" style="text;html=1;align=center;verticalAlign=middle;resizable=0;points=[];autosize=1;strokeColor=none;fillColor=none;" vertex="1" parent="ccXL9rLVVRJ975ft9sJH-14">
          <mxGeometry x="310" y="85" width="30" height="30" as="geometry" />
        </mxCell>
        <mxCell id="ccXL9rLVVRJ975ft9sJH-55" style="rounded=0;orthogonalLoop=1;jettySize=auto;html=1;exitX=1;exitY=0.5;exitDx=0;exitDy=0;entryX=0;entryY=0.5;entryDx=0;entryDy=0;dashed=1;" edge="1" parent="ccXL9rLVVRJ975ft9sJH-14" source="ccXL9rLVVRJ975ft9sJH-18" target="ccXL9rLVVRJ975ft9sJH-54">
          <mxGeometry relative="1" as="geometry">
            <mxPoint x="780" y="175" as="sourcePoint" />
          </mxGeometry>
        </mxCell>
        <mxCell id="ccXL9rLVVRJ975ft9sJH-57" style="rounded=0;orthogonalLoop=1;jettySize=auto;html=1;exitX=0;exitY=1;exitDx=0;exitDy=0;entryX=0.5;entryY=0;entryDx=0;entryDy=0;dashed=1;" edge="1" parent="ccXL9rLVVRJ975ft9sJH-14" source="ccXL9rLVVRJ975ft9sJH-18" target="ccXL9rLVVRJ975ft9sJH-56">
          <mxGeometry relative="1" as="geometry">
            <mxPoint x="780" y="205" as="sourcePoint" />
          </mxGeometry>
        </mxCell>
        <mxCell id="ccXL9rLVVRJ975ft9sJH-59" style="rounded=0;orthogonalLoop=1;jettySize=auto;html=1;exitX=1;exitY=1;exitDx=0;exitDy=0;entryX=0.5;entryY=0;entryDx=0;entryDy=0;dashed=1;" edge="1" parent="ccXL9rLVVRJ975ft9sJH-14" source="ccXL9rLVVRJ975ft9sJH-18" target="ccXL9rLVVRJ975ft9sJH-58">
          <mxGeometry relative="1" as="geometry">
            <mxPoint x="780" y="190" as="sourcePoint" />
          </mxGeometry>
        </mxCell>
        <mxCell id="ccXL9rLVVRJ975ft9sJH-78" style="rounded=0;orthogonalLoop=1;jettySize=auto;html=1;exitX=1;exitY=0.5;exitDx=0;exitDy=0;entryX=0.5;entryY=0;entryDx=0;entryDy=0;dashed=1;" edge="1" parent="ccXL9rLVVRJ975ft9sJH-14" source="ccXL9rLVVRJ975ft9sJH-56" target="ccXL9rLVVRJ975ft9sJH-77">
          <mxGeometry relative="1" as="geometry" />
        </mxCell>
        <mxCell id="ccXL9rLVVRJ975ft9sJH-18" value="Gestión de Doctores" style="rounded=0;whiteSpace=wrap;html=1;" vertex="1" parent="ccXL9rLVVRJ975ft9sJH-14">
          <mxGeometry x="820" y="70" width="120" height="60" as="geometry" />
        </mxCell>
        <mxCell id="ccXL9rLVVRJ975ft9sJH-32" style="edgeStyle=orthogonalEdgeStyle;rounded=0;orthogonalLoop=1;jettySize=auto;html=1;exitX=1;exitY=0.5;exitDx=0;exitDy=0;entryX=0;entryY=0.5;entryDx=0;entryDy=0;dashed=1;" edge="1" parent="ccXL9rLVVRJ975ft9sJH-14" source="ccXL9rLVVRJ975ft9sJH-20" target="ccXL9rLVVRJ975ft9sJH-31">
          <mxGeometry relative="1" as="geometry" />
        </mxCell>
        <mxCell id="ccXL9rLVVRJ975ft9sJH-51" style="rounded=0;orthogonalLoop=1;jettySize=auto;html=1;exitX=0.5;exitY=1;exitDx=0;exitDy=0;entryX=0.5;entryY=0;entryDx=0;entryDy=0;dashed=1;" edge="1" parent="ccXL9rLVVRJ975ft9sJH-14" source="ccXL9rLVVRJ975ft9sJH-20" target="ccXL9rLVVRJ975ft9sJH-33">
          <mxGeometry relative="1" as="geometry" />
        </mxCell>
        <mxCell id="ccXL9rLVVRJ975ft9sJH-53" style="rounded=0;orthogonalLoop=1;jettySize=auto;html=1;exitX=1;exitY=1;exitDx=0;exitDy=0;entryX=0;entryY=0;entryDx=0;entryDy=0;dashed=1;" edge="1" parent="ccXL9rLVVRJ975ft9sJH-14" source="ccXL9rLVVRJ975ft9sJH-20" target="ccXL9rLVVRJ975ft9sJH-52">
          <mxGeometry relative="1" as="geometry" />
        </mxCell>
        <mxCell id="ccXL9rLVVRJ975ft9sJH-20" value="Gestión De Pacientes" style="rounded=0;whiteSpace=wrap;html=1;" vertex="1" parent="ccXL9rLVVRJ975ft9sJH-14">
          <mxGeometry x="1180" y="20" width="120" height="60" as="geometry" />
        </mxCell>
        <mxCell id="ccXL9rLVVRJ975ft9sJH-43" style="edgeStyle=orthogonalEdgeStyle;rounded=0;orthogonalLoop=1;jettySize=auto;html=1;exitX=0.5;exitY=1;exitDx=0;exitDy=0;entryX=0.5;entryY=0;entryDx=0;entryDy=0;dashed=1;" edge="1" parent="ccXL9rLVVRJ975ft9sJH-14" source="ccXL9rLVVRJ975ft9sJH-21" target="ccXL9rLVVRJ975ft9sJH-42">
          <mxGeometry relative="1" as="geometry" />
        </mxCell>
        <mxCell id="ccXL9rLVVRJ975ft9sJH-47" style="edgeStyle=orthogonalEdgeStyle;rounded=0;orthogonalLoop=1;jettySize=auto;html=1;exitX=1;exitY=0.5;exitDx=0;exitDy=0;entryX=0;entryY=0.5;entryDx=0;entryDy=0;dashed=1;" edge="1" parent="ccXL9rLVVRJ975ft9sJH-14" source="ccXL9rLVVRJ975ft9sJH-21" target="ccXL9rLVVRJ975ft9sJH-46">
          <mxGeometry relative="1" as="geometry" />
        </mxCell>
        <mxCell id="ccXL9rLVVRJ975ft9sJH-50" style="rounded=0;orthogonalLoop=1;jettySize=auto;html=1;exitX=1;exitY=1;exitDx=0;exitDy=0;entryX=0;entryY=0;entryDx=0;entryDy=0;dashed=1;" edge="1" parent="ccXL9rLVVRJ975ft9sJH-14" source="ccXL9rLVVRJ975ft9sJH-21" target="ccXL9rLVVRJ975ft9sJH-44">
          <mxGeometry relative="1" as="geometry" />
        </mxCell>
        <mxCell id="ccXL9rLVVRJ975ft9sJH-21" value="Gestión de Admins" style="rounded=0;whiteSpace=wrap;html=1;" vertex="1" parent="ccXL9rLVVRJ975ft9sJH-14">
          <mxGeometry x="370" y="197.5" width="120" height="60" as="geometry" />
        </mxCell>
        <mxCell id="ccXL9rLVVRJ975ft9sJH-37" style="rounded=0;orthogonalLoop=1;jettySize=auto;html=1;exitX=0;exitY=1;exitDx=0;exitDy=0;entryX=1;entryY=0;entryDx=0;entryDy=0;dashed=1;" edge="1" parent="ccXL9rLVVRJ975ft9sJH-14" source="ccXL9rLVVRJ975ft9sJH-22" target="ccXL9rLVVRJ975ft9sJH-36">
          <mxGeometry relative="1" as="geometry" />
        </mxCell>
        <mxCell id="ccXL9rLVVRJ975ft9sJH-39" style="edgeStyle=orthogonalEdgeStyle;rounded=0;orthogonalLoop=1;jettySize=auto;html=1;exitX=0.5;exitY=1;exitDx=0;exitDy=0;entryX=0.5;entryY=0;entryDx=0;entryDy=0;dashed=1;" edge="1" parent="ccXL9rLVVRJ975ft9sJH-14" source="ccXL9rLVVRJ975ft9sJH-22" target="ccXL9rLVVRJ975ft9sJH-38">
          <mxGeometry relative="1" as="geometry" />
        </mxCell>
        <mxCell id="ccXL9rLVVRJ975ft9sJH-41" style="rounded=0;orthogonalLoop=1;jettySize=auto;html=1;exitX=0;exitY=0.5;exitDx=0;exitDy=0;entryX=1;entryY=0.5;entryDx=0;entryDy=0;dashed=1;" edge="1" parent="ccXL9rLVVRJ975ft9sJH-14" source="ccXL9rLVVRJ975ft9sJH-22" target="ccXL9rLVVRJ975ft9sJH-40">
          <mxGeometry relative="1" as="geometry" />
        </mxCell>
        <mxCell id="ccXL9rLVVRJ975ft9sJH-22" value="Gestión de Citas" style="rounded=0;whiteSpace=wrap;html=1;" vertex="1" parent="ccXL9rLVVRJ975ft9sJH-14">
          <mxGeometry x="200" y="197.5" width="120" height="60" as="geometry" />
        </mxCell>
        <mxCell id="ccXL9rLVVRJ975ft9sJH-91" style="edgeStyle=orthogonalEdgeStyle;rounded=0;orthogonalLoop=1;jettySize=auto;html=1;exitX=1;exitY=0.5;exitDx=0;exitDy=0;entryX=0;entryY=0.5;entryDx=0;entryDy=0;" edge="1" parent="ccXL9rLVVRJ975ft9sJH-14" source="ccXL9rLVVRJ975ft9sJH-31" target="ccXL9rLVVRJ975ft9sJH-90">
          <mxGeometry relative="1" as="geometry" />
        </mxCell>
        <mxCell id="ccXL9rLVVRJ975ft9sJH-31" value="Eliminar pacientes" style="rounded=0;whiteSpace=wrap;html=1;" vertex="1" parent="ccXL9rLVVRJ975ft9sJH-14">
          <mxGeometry x="1360" y="20" width="120" height="60" as="geometry" />
        </mxCell>
        <mxCell id="ccXL9rLVVRJ975ft9sJH-33" value="Agregar Pacientes" style="rounded=0;whiteSpace=wrap;html=1;" vertex="1" parent="ccXL9rLVVRJ975ft9sJH-14">
          <mxGeometry x="1180" y="110" width="120" height="60" as="geometry" />
        </mxCell>
        <mxCell id="ccXL9rLVVRJ975ft9sJH-100" style="edgeStyle=orthogonalEdgeStyle;rounded=0;orthogonalLoop=1;jettySize=auto;html=1;exitX=0.5;exitY=1;exitDx=0;exitDy=0;entryX=0.5;entryY=0;entryDx=0;entryDy=0;" edge="1" parent="ccXL9rLVVRJ975ft9sJH-14" source="ccXL9rLVVRJ975ft9sJH-36" target="ccXL9rLVVRJ975ft9sJH-99">
          <mxGeometry relative="1" as="geometry" />
        </mxCell>
        <mxCell id="ccXL9rLVVRJ975ft9sJH-36" value="Actualizar Estado" style="rounded=0;whiteSpace=wrap;html=1;" vertex="1" parent="ccXL9rLVVRJ975ft9sJH-14">
          <mxGeometry x="50" y="277.5" width="120" height="60" as="geometry" />
        </mxCell>
        <mxCell id="ccXL9rLVVRJ975ft9sJH-38" value="Editar Cita" style="rounded=0;whiteSpace=wrap;html=1;" vertex="1" parent="ccXL9rLVVRJ975ft9sJH-14">
          <mxGeometry x="200" y="277.5" width="120" height="60" as="geometry" />
        </mxCell>
        <mxCell id="ccXL9rLVVRJ975ft9sJH-40" value="Eliminar Cita" style="rounded=0;whiteSpace=wrap;html=1;" vertex="1" parent="ccXL9rLVVRJ975ft9sJH-14">
          <mxGeometry x="50" y="197.5" width="120" height="60" as="geometry" />
        </mxCell>
        <mxCell id="ccXL9rLVVRJ975ft9sJH-42" value="Agregar Admin" style="rounded=0;whiteSpace=wrap;html=1;" vertex="1" parent="ccXL9rLVVRJ975ft9sJH-14">
          <mxGeometry x="370" y="287.5" width="120" height="60" as="geometry" />
        </mxCell>
        <mxCell id="ccXL9rLVVRJ975ft9sJH-44" value="Actualizar Estado" style="rounded=0;whiteSpace=wrap;html=1;" vertex="1" parent="ccXL9rLVVRJ975ft9sJH-14">
          <mxGeometry x="530" y="287.5" width="120" height="60" as="geometry" />
        </mxCell>
        <mxCell id="ccXL9rLVVRJ975ft9sJH-46" value="Editar Admin" style="rounded=0;whiteSpace=wrap;html=1;" vertex="1" parent="ccXL9rLVVRJ975ft9sJH-14">
          <mxGeometry x="530" y="197.5" width="120" height="60" as="geometry" />
        </mxCell>
        <mxCell id="ccXL9rLVVRJ975ft9sJH-52" value="Editar Pacientes" style="rounded=0;whiteSpace=wrap;html=1;" vertex="1" parent="ccXL9rLVVRJ975ft9sJH-14">
          <mxGeometry x="1360" y="110" width="120" height="60" as="geometry" />
        </mxCell>
        <mxCell id="ccXL9rLVVRJ975ft9sJH-54" value="Agregar Doctores" style="rounded=0;whiteSpace=wrap;html=1;" vertex="1" parent="ccXL9rLVVRJ975ft9sJH-14">
          <mxGeometry x="1000" y="70" width="120" height="60" as="geometry" />
        </mxCell>
        <mxCell id="ccXL9rLVVRJ975ft9sJH-56" value="Editar Doctores" style="rounded=0;whiteSpace=wrap;html=1;" vertex="1" parent="ccXL9rLVVRJ975ft9sJH-14">
          <mxGeometry x="760" y="250" width="120" height="60" as="geometry" />
        </mxCell>
        <mxCell id="ccXL9rLVVRJ975ft9sJH-61" style="rounded=0;orthogonalLoop=1;jettySize=auto;html=1;exitX=0.5;exitY=1;exitDx=0;exitDy=0;" edge="1" parent="ccXL9rLVVRJ975ft9sJH-14" source="ccXL9rLVVRJ975ft9sJH-58" target="ccXL9rLVVRJ975ft9sJH-60">
          <mxGeometry relative="1" as="geometry" />
        </mxCell>
        <mxCell id="ccXL9rLVVRJ975ft9sJH-58" value="Eliminar Doctores" style="rounded=0;whiteSpace=wrap;html=1;" vertex="1" parent="ccXL9rLVVRJ975ft9sJH-14">
          <mxGeometry x="880" y="180" width="120" height="60" as="geometry" />
        </mxCell>
        <mxCell id="ccXL9rLVVRJ975ft9sJH-63" style="rounded=0;orthogonalLoop=1;jettySize=auto;html=1;exitX=1;exitY=0.5;exitDx=0;exitDy=0;entryX=0;entryY=0.5;entryDx=0;entryDy=0;" edge="1" parent="ccXL9rLVVRJ975ft9sJH-14" source="ccXL9rLVVRJ975ft9sJH-60" target="ccXL9rLVVRJ975ft9sJH-62">
          <mxGeometry relative="1" as="geometry" />
        </mxCell>
        <mxCell id="ccXL9rLVVRJ975ft9sJH-60" value="Modal" style="rhombus;whiteSpace=wrap;html=1;" vertex="1" parent="ccXL9rLVVRJ975ft9sJH-14">
          <mxGeometry x="900" y="340" width="80" height="80" as="geometry" />
        </mxCell>
        <mxCell id="ccXL9rLVVRJ975ft9sJH-62" value="Doctor Eliminado" style="rounded=0;whiteSpace=wrap;html=1;" vertex="1" parent="ccXL9rLVVRJ975ft9sJH-14">
          <mxGeometry x="1040" y="350" width="120" height="60" as="geometry" />
        </mxCell>
        <mxCell id="ccXL9rLVVRJ975ft9sJH-65" value="Cancela Accion" style="strokeWidth=2;html=1;shape=mxgraph.flowchart.terminator;whiteSpace=wrap;" vertex="1" parent="ccXL9rLVVRJ975ft9sJH-14">
          <mxGeometry x="890" y="470" width="100" height="60" as="geometry" />
        </mxCell>
        <mxCell id="ccXL9rLVVRJ975ft9sJH-66" style="edgeStyle=orthogonalEdgeStyle;rounded=0;orthogonalLoop=1;jettySize=auto;html=1;exitX=0.5;exitY=1;exitDx=0;exitDy=0;entryX=0.5;entryY=0;entryDx=0;entryDy=0;entryPerimeter=0;" edge="1" parent="ccXL9rLVVRJ975ft9sJH-14" source="ccXL9rLVVRJ975ft9sJH-60" target="ccXL9rLVVRJ975ft9sJH-65">
          <mxGeometry relative="1" as="geometry" />
        </mxCell>
        <mxCell id="ccXL9rLVVRJ975ft9sJH-67" value="No" style="edgeLabel;html=1;align=center;verticalAlign=middle;resizable=0;points=[];" vertex="1" connectable="0" parent="ccXL9rLVVRJ975ft9sJH-66">
          <mxGeometry x="-0.1176" y="2" relative="1" as="geometry">
            <mxPoint as="offset" />
          </mxGeometry>
        </mxCell>
        <mxCell id="ccXL9rLVVRJ975ft9sJH-71" style="rounded=0;orthogonalLoop=1;jettySize=auto;html=1;exitX=0.5;exitY=1;exitDx=0;exitDy=0;exitPerimeter=0;" edge="1" parent="ccXL9rLVVRJ975ft9sJH-14" source="ccXL9rLVVRJ975ft9sJH-68" target="ccXL9rLVVRJ975ft9sJH-70">
          <mxGeometry relative="1" as="geometry" />
        </mxCell>
        <mxCell id="ccXL9rLVVRJ975ft9sJH-72" value="Si" style="edgeLabel;html=1;align=center;verticalAlign=middle;resizable=0;points=[];" vertex="1" connectable="0" parent="ccXL9rLVVRJ975ft9sJH-71">
          <mxGeometry x="0.0147" relative="1" as="geometry">
            <mxPoint as="offset" />
          </mxGeometry>
        </mxCell>
        <mxCell id="ccXL9rLVVRJ975ft9sJH-68" value="Modal" style="strokeWidth=2;html=1;shape=mxgraph.flowchart.decision;whiteSpace=wrap;" vertex="1" parent="ccXL9rLVVRJ975ft9sJH-14">
          <mxGeometry x="780" y="360" width="80" height="80" as="geometry" />
        </mxCell>
        <mxCell id="ccXL9rLVVRJ975ft9sJH-69" style="rounded=0;orthogonalLoop=1;jettySize=auto;html=1;exitX=0.5;exitY=1;exitDx=0;exitDy=0;entryX=0.5;entryY=0;entryDx=0;entryDy=0;entryPerimeter=0;" edge="1" parent="ccXL9rLVVRJ975ft9sJH-14" source="ccXL9rLVVRJ975ft9sJH-56" target="ccXL9rLVVRJ975ft9sJH-68">
          <mxGeometry relative="1" as="geometry" />
        </mxCell>
        <mxCell id="ccXL9rLVVRJ975ft9sJH-70" value="Guardas Datos" style="rounded=0;whiteSpace=wrap;html=1;" vertex="1" parent="ccXL9rLVVRJ975ft9sJH-14">
          <mxGeometry x="760" y="490" width="120" height="60" as="geometry" />
        </mxCell>
        <mxCell id="ccXL9rLVVRJ975ft9sJH-74" value="Cancelar Accion" style="strokeWidth=2;html=1;shape=mxgraph.flowchart.terminator;whiteSpace=wrap;" vertex="1" parent="ccXL9rLVVRJ975ft9sJH-14">
          <mxGeometry x="640" y="430" width="100" height="60" as="geometry" />
        </mxCell>
        <mxCell id="ccXL9rLVVRJ975ft9sJH-75" style="rounded=0;orthogonalLoop=1;jettySize=auto;html=1;exitX=0;exitY=0.5;exitDx=0;exitDy=0;exitPerimeter=0;entryX=0.5;entryY=0;entryDx=0;entryDy=0;entryPerimeter=0;" edge="1" parent="ccXL9rLVVRJ975ft9sJH-14" source="ccXL9rLVVRJ975ft9sJH-68" target="ccXL9rLVVRJ975ft9sJH-74">
          <mxGeometry relative="1" as="geometry" />
        </mxCell>
        <mxCell id="ccXL9rLVVRJ975ft9sJH-76" value="No" style="edgeLabel;html=1;align=center;verticalAlign=middle;resizable=0;points=[];" vertex="1" connectable="0" parent="ccXL9rLVVRJ975ft9sJH-75">
          <mxGeometry x="0.0362" y="-1" relative="1" as="geometry">
            <mxPoint as="offset" />
          </mxGeometry>
        </mxCell>
        <mxCell id="ccXL9rLVVRJ975ft9sJH-80" style="rounded=0;orthogonalLoop=1;jettySize=auto;html=1;exitX=0;exitY=0.5;exitDx=0;exitDy=0;entryX=1;entryY=0.5;entryDx=0;entryDy=0;" edge="1" parent="ccXL9rLVVRJ975ft9sJH-14" source="ccXL9rLVVRJ975ft9sJH-77" target="ccXL9rLVVRJ975ft9sJH-79">
          <mxGeometry relative="1" as="geometry" />
        </mxCell>
        <mxCell id="ccXL9rLVVRJ975ft9sJH-77" value="Actualizar Estado" style="rounded=0;whiteSpace=wrap;html=1;" vertex="1" parent="ccXL9rLVVRJ975ft9sJH-14">
          <mxGeometry x="480" y="420" width="120" height="60" as="geometry" />
        </mxCell>
        <mxCell id="ccXL9rLVVRJ975ft9sJH-82" style="rounded=0;orthogonalLoop=1;jettySize=auto;html=1;exitX=0;exitY=0.5;exitDx=0;exitDy=0;entryX=1;entryY=0.5;entryDx=0;entryDy=0;" edge="1" parent="ccXL9rLVVRJ975ft9sJH-14" source="ccXL9rLVVRJ975ft9sJH-79" target="ccXL9rLVVRJ975ft9sJH-81">
          <mxGeometry relative="1" as="geometry" />
        </mxCell>
        <mxCell id="ccXL9rLVVRJ975ft9sJH-83" value="Si" style="edgeLabel;html=1;align=center;verticalAlign=middle;resizable=0;points=[];" vertex="1" connectable="0" parent="ccXL9rLVVRJ975ft9sJH-82">
          <mxGeometry x="-0.05" y="-3" relative="1" as="geometry">
            <mxPoint as="offset" />
          </mxGeometry>
        </mxCell>
        <mxCell id="ccXL9rLVVRJ975ft9sJH-85" style="rounded=0;orthogonalLoop=1;jettySize=auto;html=1;exitX=0.5;exitY=1;exitDx=0;exitDy=0;entryX=0.5;entryY=0;entryDx=0;entryDy=0;" edge="1" parent="ccXL9rLVVRJ975ft9sJH-14" source="ccXL9rLVVRJ975ft9sJH-79" target="ccXL9rLVVRJ975ft9sJH-84">
          <mxGeometry relative="1" as="geometry" />
        </mxCell>
        <mxCell id="ccXL9rLVVRJ975ft9sJH-86" value="No" style="edgeLabel;html=1;align=center;verticalAlign=middle;resizable=0;points=[];" vertex="1" connectable="0" parent="ccXL9rLVVRJ975ft9sJH-85">
          <mxGeometry x="-0.0667" y="-1" relative="1" as="geometry">
            <mxPoint as="offset" />
          </mxGeometry>
        </mxCell>
        <mxCell id="ccXL9rLVVRJ975ft9sJH-79" value="Opcion" style="rhombus;whiteSpace=wrap;html=1;" vertex="1" parent="ccXL9rLVVRJ975ft9sJH-14">
          <mxGeometry x="350" y="420" width="60" height="60" as="geometry" />
        </mxCell>
        <mxCell id="ccXL9rLVVRJ975ft9sJH-81" value="Cambiar Estado" style="rounded=0;whiteSpace=wrap;html=1;" vertex="1" parent="ccXL9rLVVRJ975ft9sJH-14">
          <mxGeometry x="180" y="435" width="100" height="30" as="geometry" />
        </mxCell>
        <mxCell id="ccXL9rLVVRJ975ft9sJH-84" value="Seguir con estado actual" style="rounded=0;whiteSpace=wrap;html=1;" vertex="1" parent="ccXL9rLVVRJ975ft9sJH-14">
          <mxGeometry x="325" y="540" width="110" height="35" as="geometry" />
        </mxCell>
        <mxCell id="ccXL9rLVVRJ975ft9sJH-93" style="rounded=0;orthogonalLoop=1;jettySize=auto;html=1;exitX=1;exitY=0.5;exitDx=0;exitDy=0;entryX=0;entryY=0.5;entryDx=0;entryDy=0;" edge="1" parent="ccXL9rLVVRJ975ft9sJH-14" source="ccXL9rLVVRJ975ft9sJH-90" target="ccXL9rLVVRJ975ft9sJH-92">
          <mxGeometry relative="1" as="geometry" />
        </mxCell>
        <mxCell id="ccXL9rLVVRJ975ft9sJH-94" value="Si" style="edgeLabel;html=1;align=center;verticalAlign=middle;resizable=0;points=[];" vertex="1" connectable="0" parent="ccXL9rLVVRJ975ft9sJH-93">
          <mxGeometry x="0.025" y="-3" relative="1" as="geometry">
            <mxPoint x="-1" as="offset" />
          </mxGeometry>
        </mxCell>
        <mxCell id="ccXL9rLVVRJ975ft9sJH-96" style="rounded=0;orthogonalLoop=1;jettySize=auto;html=1;exitX=0.5;exitY=1;exitDx=0;exitDy=0;entryX=0.5;entryY=0;entryDx=0;entryDy=0;" edge="1" parent="ccXL9rLVVRJ975ft9sJH-14" source="ccXL9rLVVRJ975ft9sJH-90" target="ccXL9rLVVRJ975ft9sJH-95">
          <mxGeometry relative="1" as="geometry" />
        </mxCell>
        <mxCell id="ccXL9rLVVRJ975ft9sJH-97" value="No" style="edgeLabel;html=1;align=center;verticalAlign=middle;resizable=0;points=[];" vertex="1" connectable="0" parent="ccXL9rLVVRJ975ft9sJH-96">
          <mxGeometry x="-0.0804" y="2" relative="1" as="geometry">
            <mxPoint x="-1" as="offset" />
          </mxGeometry>
        </mxCell>
        <mxCell id="ccXL9rLVVRJ975ft9sJH-90" value="Modal" style="rhombus;whiteSpace=wrap;html=1;" vertex="1" parent="ccXL9rLVVRJ975ft9sJH-14">
          <mxGeometry x="1540" y="20" width="60" height="60" as="geometry" />
        </mxCell>
        <mxCell id="ccXL9rLVVRJ975ft9sJH-92" value="Paciente Eliminado" style="rounded=0;whiteSpace=wrap;html=1;" vertex="1" parent="ccXL9rLVVRJ975ft9sJH-14">
          <mxGeometry x="1660" y="22.5" width="120" height="55" as="geometry" />
        </mxCell>
        <mxCell id="ccXL9rLVVRJ975ft9sJH-95" value="Cancelar Accion" style="rounded=0;whiteSpace=wrap;html=1;" vertex="1" parent="ccXL9rLVVRJ975ft9sJH-14">
          <mxGeometry x="1510" y="120" width="120" height="50" as="geometry" />
        </mxCell>
        <mxCell id="ccXL9rLVVRJ975ft9sJH-98" value="Cambia Estado a Atendido" style="rounded=0;whiteSpace=wrap;html=1;" vertex="1" parent="ccXL9rLVVRJ975ft9sJH-14">
          <mxGeometry x="60" y="450" width="100" height="50" as="geometry" />
        </mxCell>
        <mxCell id="ccXL9rLVVRJ975ft9sJH-101" style="rounded=0;orthogonalLoop=1;jettySize=auto;html=1;exitX=0.5;exitY=1;exitDx=0;exitDy=0;entryX=0.5;entryY=0;entryDx=0;entryDy=0;" edge="1" parent="ccXL9rLVVRJ975ft9sJH-14" source="ccXL9rLVVRJ975ft9sJH-99" target="ccXL9rLVVRJ975ft9sJH-98">
          <mxGeometry relative="1" as="geometry" />
        </mxCell>
        <mxCell id="ccXL9rLVVRJ975ft9sJH-102" value="Si" style="edgeLabel;html=1;align=center;verticalAlign=middle;resizable=0;points=[];" vertex="1" connectable="0" parent="ccXL9rLVVRJ975ft9sJH-101">
          <mxGeometry x="-0.2833" y="1" relative="1" as="geometry">
            <mxPoint y="-1" as="offset" />
          </mxGeometry>
        </mxCell>
        <mxCell id="ccXL9rLVVRJ975ft9sJH-104" style="rounded=0;orthogonalLoop=1;jettySize=auto;html=1;exitX=1;exitY=0.5;exitDx=0;exitDy=0;entryX=0;entryY=0.5;entryDx=0;entryDy=0;" edge="1" parent="ccXL9rLVVRJ975ft9sJH-14" source="ccXL9rLVVRJ975ft9sJH-99" target="ccXL9rLVVRJ975ft9sJH-103">
          <mxGeometry relative="1" as="geometry" />
        </mxCell>
        <mxCell id="ccXL9rLVVRJ975ft9sJH-105" value="No" style="edgeLabel;html=1;align=center;verticalAlign=middle;resizable=0;points=[];" vertex="1" connectable="0" parent="ccXL9rLVVRJ975ft9sJH-104">
          <mxGeometry x="-0.0875" y="-1" relative="1" as="geometry">
            <mxPoint x="-1" as="offset" />
          </mxGeometry>
        </mxCell>
        <mxCell id="ccXL9rLVVRJ975ft9sJH-99" value="Modal" style="rhombus;whiteSpace=wrap;html=1;" vertex="1" parent="ccXL9rLVVRJ975ft9sJH-14">
          <mxGeometry x="80" y="360" width="60" height="50" as="geometry" />
        </mxCell>
        <mxCell id="ccXL9rLVVRJ975ft9sJH-103" value="Deja el Estado tal cual" style="rounded=0;whiteSpace=wrap;html=1;" vertex="1" parent="ccXL9rLVVRJ975ft9sJH-14">
          <mxGeometry x="180" y="355" width="120" height="60" as="geometry" />
        </mxCell>
        <mxCell id="ccXL9rLVVRJ975ft9sJH-16" value="" style="strokeWidth=2;html=1;shape=mxgraph.flowchart.start_1;whiteSpace=wrap;" vertex="1" parent="WIyWlLk6GJQsqaUBKTNV-1">
          <mxGeometry x="100" y="20" width="100" height="60" as="geometry" />
        </mxCell>
        <mxCell id="ccXL9rLVVRJ975ft9sJH-87" value="Doctor" style="swimlane;horizontal=0;whiteSpace=wrap;html=1;" vertex="1" parent="WIyWlLk6GJQsqaUBKTNV-1">
          <mxGeometry x="50" y="960" width="1970" height="720" as="geometry" />
        </mxCell>
        <mxCell id="ccXL9rLVVRJ975ft9sJH-111" style="edgeStyle=orthogonalEdgeStyle;rounded=0;orthogonalLoop=1;jettySize=auto;html=1;exitX=1;exitY=0.5;exitDx=0;exitDy=0;entryX=0;entryY=0.5;entryDx=0;entryDy=0;" edge="1" parent="ccXL9rLVVRJ975ft9sJH-87" source="ccXL9rLVVRJ975ft9sJH-107" target="ccXL9rLVVRJ975ft9sJH-110">
          <mxGeometry relative="1" as="geometry" />
        </mxCell>
        <mxCell id="ccXL9rLVVRJ975ft9sJH-107" value="Login" style="rounded=0;whiteSpace=wrap;html=1;" vertex="1" parent="ccXL9rLVVRJ975ft9sJH-87">
          <mxGeometry x="40" y="70" width="120" height="60" as="geometry" />
        </mxCell>
        <mxCell id="ccXL9rLVVRJ975ft9sJH-110" value="Verifica que se Doctor" style="rhombus;whiteSpace=wrap;html=1;" vertex="1" parent="ccXL9rLVVRJ975ft9sJH-87">
          <mxGeometry x="230" y="45" width="110" height="110" as="geometry" />
        </mxCell>
        <mxCell id="ccXL9rLVVRJ975ft9sJH-108" style="edgeStyle=orthogonalEdgeStyle;rounded=0;orthogonalLoop=1;jettySize=auto;html=1;exitX=0.5;exitY=1;exitDx=0;exitDy=0;exitPerimeter=0;entryX=0.5;entryY=0;entryDx=0;entryDy=0;" edge="1" parent="WIyWlLk6GJQsqaUBKTNV-1" source="ccXL9rLVVRJ975ft9sJH-106" target="ccXL9rLVVRJ975ft9sJH-107">
          <mxGeometry relative="1" as="geometry" />
        </mxCell>
        <mxCell id="ccXL9rLVVRJ975ft9sJH-106" value="" style="strokeWidth=2;html=1;shape=mxgraph.flowchart.start_2;whiteSpace=wrap;" vertex="1" parent="WIyWlLk6GJQsqaUBKTNV-1">
          <mxGeometry x="100" y="830" width="100" height="100" as="geometry" />
        </mxCell>
      </root>
    </mxGraphModel>
  </diagram>
</mxfile>
